<?xml version="1.0" standalone="no"?>
<!DOCTYPE svg PUBLIC "-//W3C//DTD SVG 20010904//EN"
 "http://www.w3.org/TR/2001/REC-SVG-20010904/DTD/svg10.dtd">
<svg version="1.0" xmlns="http://www.w3.org/2000/svg"
 width="1000.000000pt" height="1000.000000pt" viewBox="0 0 1000.000000 1000.000000"
 preserveAspectRatio="xMidYMid meet">
<metadata>
Created by potrace 1.14, written by Peter Selinger 2001-2017
</metadata>
<g transform="translate(0.000000,1000.000000) scale(0.100000,-0.100000)"
fill="#000000" stroke="none">
<path d="M3794 7615 c-266 -24 -557 -70 -824 -129 -194 -43 -442 -110 -446
-121 -2 -5 232 -1070 520 -2365 l522 -2355 120 -38 c346 -110 596 -168 924
-214 97 -13 195 -17 435 -17 274 -1 327 2 453 22 530 84 960 292 1302 632 436
433 680 1052 680 1725 0 847 -387 1654 -1045 2180 -457 365 -1004 582 -1695
671 -165 22 -749 27 -946 9z m961 -1461 c635 -270 1118 -687 1310 -1132 274
-631 -15 -1228 -753 -1557 -232 -103 -506 -179 -826 -229 l-89 -14 6 432 c4
237 12 580 18 761 22 654 14 1453 -17 1808 l-6 67 113 -40 c63 -23 173 -66
244 -96z"/>
</g>
</svg>
