<?xml version="1.0" standalone="no"?>
<!DOCTYPE svg PUBLIC "-//W3C//DTD SVG 20010904//EN"
 "http://www.w3.org/TR/2001/REC-SVG-20010904/DTD/svg10.dtd">
<svg version="1.0" xmlns="http://www.w3.org/2000/svg"
 width="1000.000000pt" height="1000.000000pt" viewBox="0 0 1000.000000 1000.000000"
 preserveAspectRatio="xMidYMid meet">
<metadata>
Created by potrace 1.14, written by Peter Selinger 2001-2017
</metadata>
<g transform="translate(0.000000,1000.000000) scale(0.100000,-0.100000)"
fill="#000000" stroke="none">
<path d="M1765 9994 c-461 -37 -880 -230 -1205 -554 -288 -289 -465 -636 -537
-1053 -17 -96 -18 -292 -18 -3387 0 -3095 1 -3291 18 -3387 72 -417 249 -764
537 -1053 289 -288 636 -465 1053 -537 96 -17 292 -18 3387 -18 3095 0 3291 1
3387 18 417 72 764 249 1053 537 288 289 465 636 537 1053 17 96 18 292 18
3387 0 3095 -1 3291 -18 3387 -72 417 -249 764 -537 1053 -286 285 -620 457
-1045 537 -83 16 -326 17 -3340 19 -1787 0 -3268 -1 -3290 -2z m2975 -2388
c741 -95 1294 -327 1787 -748 272 -233 538 -585 689 -915 470 -1020 301 -2201
-416 -2913 -380 -377 -861 -591 -1464 -651 -150 -15 -566 -6 -726 15 -307 40
-676 127 -974 229 l-70 24 -523 2354 c-287 1295 -521 2359 -519 2365 2 6 78
29 167 52 402 103 727 162 1103 197 186 18 783 12 946 -9z"/>
<path d="M4404 6223 c32 -363 39 -1148 17 -1808 -6 -181 -14 -524 -18 -761
l-6 -431 139 22 c495 82 861 221 1152 439 346 261 516 614 473 987 -73 639
-698 1238 -1650 1578 l-113 41 6 -67z"/>
</g>
</svg>
